<?xml version="1.0" encoding="UTF-8"?>
<svg version="1.1" xmlns="http://www.w3.org/2000/svg" width="866" height="650">
<path d="M0 0 C285.78 0 571.56 0 866 0 C866 214.5 866 429 866 650 C580.22 650 294.44 650 0 650 C0 435.5 0 221 0 0 Z " fill="#FEFEFE" transform="translate(0,0)"/>
<path d="M0 0 C1.35753474 0.5702932 2.71564835 1.13920965 4.07421875 1.70703125 C33.52556988 14.18575499 58.97926039 32.99675164 82 55 C82.74765625 55.70640625 83.4953125 56.4128125 84.265625 57.140625 C89.14955494 61.87073037 93.47225465 66.98548031 97.67822266 72.32324219 C98.61125755 73.50685571 99.54887767 74.68686167 100.48974609 75.86425781 C129.68720883 112.4848043 147.60347976 155.67099244 154 202 C154.14683228 203.02601318 154.14683228 203.02601318 154.29663086 204.07275391 C155.29998413 212.29828161 155.18606878 220.58218735 155.18530273 228.85546875 C155.18747201 231.46631615 155.20563001 234.07672795 155.22460938 236.6875 C155.31598267 263.24934144 151.17859448 290.02052507 142 315 C141.65340332 315.94665527 141.30680664 316.89331055 140.94970703 317.86865234 C133.50249574 337.90649574 124.6358779 357.65284831 112 375 C111.16211747 376.18444127 110.32492156 377.36936845 109.48828125 378.5546875 C95.01995494 398.86644548 77.89263152 418.02248596 57.68603516 432.75830078 C55.94806168 434.03825055 54.24494373 435.35623438 52.54296875 436.68359375 C29.61713232 454.34251431 3.24593671 465.8173669 -24 475 C-25.2271875 475.42152344 -26.454375 475.84304688 -27.71875 476.27734375 C-46.02118311 482.0315178 -66.24301701 485.09802355 -85.42578125 485.203125 C-86.71847931 485.21351051 -86.71847931 485.21351051 -88.03729248 485.22410583 C-90.79574203 485.24126192 -93.55399964 485.24769043 -96.3125 485.25 C-97.25374725 485.25133942 -98.19499451 485.25267883 -99.1647644 485.25405884 C-111.92711629 485.25011283 -124.35121852 484.94272448 -136.90283203 482.41015625 C-139.02211077 481.99567566 -141.14134838 481.65997687 -143.27734375 481.34375 C-198.75027944 472.93236812 -253.3461186 440.22573663 -289 397 C-289.42748535 396.48630859 -289.8549707 395.97261719 -290.29541016 395.44335938 C-297.8355204 386.34929747 -304.72876096 377.01099118 -311 367 C-311.42603516 366.33145996 -311.85207031 365.66291992 -312.29101562 364.97412109 C-325.12914217 344.6470874 -335.36150631 321.39404183 -341 298 C-341.22091309 297.09185547 -341.44182617 296.18371094 -341.66943359 295.24804688 C-357.50559236 228.56711074 -347.73770693 159.40292685 -311.98046875 100.68359375 C-310.05297349 97.7354289 -308.05409105 94.8613261 -306 92 C-305.59168945 91.42330566 -305.18337891 90.84661133 -304.76269531 90.25244141 C-288.68269451 67.5747531 -269.6591438 46.36416305 -246.83740234 30.29492188 C-245.141934 29.10002896 -243.47013042 27.87174454 -241.80078125 26.640625 C-173.56637435 -22.63492621 -77.29627561 -34.11504304 0 0 Z " fill="#171717" transform="translate(530,92)"/>
<path d="M0 0 C1.77206192 0.00015919 3.54412846 0.00585754 5.31616211 0.01586914 C6.24698105 0.01728409 7.17779999 0.01869904 8.13682556 0.02015686 C11.12241777 0.02577367 14.10793615 0.03832899 17.09350586 0.05102539 C19.11238499 0.05603823 21.13126529 0.06060151 23.15014648 0.06469727 C28.11046158 0.07574856 33.07072118 0.09302444 38.03100586 0.11352539 C38.03100586 0.44352539 38.03100586 0.77352539 38.03100586 1.11352539 C24.50100586 1.44352539 10.97100586 1.77352539 -2.96899414 2.11352539 C-3.29899414 67.45352539 -3.62899414 132.79352539 -3.96899414 200.11352539 C12.36600586 200.60852539 12.36600586 200.60852539 29.03100586 201.11352539 C29.03100586 149.30352539 29.03100586 97.49352539 29.03100586 44.11352539 C30.02100586 44.44352539 31.01100586 44.77352539 32.03100586 45.11352539 C32.03100586 45.77352539 32.03100586 46.43352539 32.03100586 47.11352539 C33.35100586 47.77352539 34.67100586 48.43352539 36.03100586 49.11352539 C33.03100586 49.11352539 33.03100586 49.11352539 30.03100586 48.11352539 C30.03100586 98.93352539 30.03100586 149.75352539 30.03100586 202.11352539 C18.48100586 202.11352539 6.93100586 202.11352539 -4.96899414 202.11352539 C-4.99210993 175.92365232 -5.00997172 149.73378169 -5.02080631 123.54390049 C-5.02596996 111.3844067 -5.03301397 99.22491935 -5.04443359 87.06542969 C-5.05437833 76.47136571 -5.06084706 65.87730639 -5.06308264 55.28323787 C-5.0643901 49.67003136 -5.06747821 44.05683819 -5.0747242 38.44363594 C-5.0814811 33.16686003 -5.08361178 27.89010304 -5.08210182 22.61332321 C-5.0823783 20.67061066 -5.08438537 18.72789751 -5.08819962 16.78518867 C-5.09313172 14.14494113 -5.09199423 11.50476623 -5.08924866 8.86451721 C-5.0921615 8.08534945 -5.09507434 7.30618168 -5.09807545 6.50340277 C-5.08004623 0.14530488 -5.08004623 0.14530488 0 0 Z " fill="#A1A1A1" transform="translate(336.968994140625,223.886474609375)"/>
<path d="M0 0 C11.22 0 22.44 0 34 0 C34 36.3 34 72.6 34 110 C33.67 110 33.34 110 33 110 C33 75.02 33 40.04 33 4 C17.655 4.495 17.655 4.495 2 5 C1.67 34.37 1.34 63.74 1 94 C0.67 94 0.34 94 0 94 C0 62.98 0 31.96 0 0 Z " fill="#909090" transform="translate(503,224)"/>
<path d="M0 0 C0.99 0.33 1.98 0.66 3 1 C3 1.66 3 2.32 3 3 C4.32 3.66 5.64 4.32 7 5 C4 5 4 5 1 4 C1 54.82 1 105.64 1 158 C0.67 158 0.34 158 0 158 C0 105.86 0 53.72 0 0 Z " fill="#686868" transform="translate(366,268)"/>
<path d="M0 0 C10.56 0 21.12 0 32 0 C32 0.99 32 1.98 32 3 C16.16 3.495 16.16 3.495 0 4 C0 2.68 0 1.36 0 0 Z " fill="#FBFAFB" transform="translate(504,225)"/>
</svg>
